<svg width="30" height="30" fill="none" xmlns="http://www.w3.org/2000/svg"><g clip-path="url(#clip0_141_2740)"><path d="M7.17 2.025c-.614 1.419-.903 2.838-.903 4.219 0 4.583 3.24 8.337 8.287 8.337 5.047 0 8.286-3.754 8.286-8.337 0-1.381-.288-2.8-.891-4.219-.276-.603-.992-.69-1.47-.2l-2.812 2.862-2.398-3.101c-.389-.503-1.042-.503-1.418 0l-2.399 3.1-2.825-2.862c-.477-.49-1.193-.402-1.456.201zm6.38 25.338c0 .565.439.941 1.003.941 6.492 0 12.456-4.005 14.415-9.63.276-.766-.013-1.255-.83-1.255-6.415 0-11.036 3.766-12.894 8.525l.327.427V13.313h-2.022v14.05zm-1.721-4.797C9.469 19.503 5.689 17.42.931 17.42c-.817 0-1.105.49-.83 1.255 1.683 4.872 6.354 8.538 11.828 9.404a2.593 2.593 0 01-.1-.715v-4.797z" fill="#262626"/></g><defs><clipPath id="clip0_141_2740"><path fill="#fff" transform="translate(0 1.071)" d="M0 0h29.07v27.234H0z"/></clipPath></defs></svg>