<svg width="30" height="30" fill="none" xmlns="http://www.w3.org/2000/svg"><g clip-path="url(#clip0_141_2750)"><path d="M27.938 8.835L18.18 4.37c-1.017-.458-1.844-.678-2.671-.658-.818-.02-1.645.2-2.672.658L3.09 8.835c-.637.29-.946.798-.946 1.306s.309 1.007.946 1.306l4.107 1.874 6.31-2.96a.332.332 0 01-.08-.22c0-.628 1.056-1.106 2.123-1.106 1.076 0 2.113.478 2.113 1.106 0 .648-1.037 1.136-2.113 1.136-.33 0-.658-.05-.947-.13l-6.02 2.821 4.255 1.954c1.027.468 1.854.668 2.672.658.827.01 1.654-.19 2.67-.658l9.759-4.475c.638-.3.947-.798.947-1.306s-.31-1.017-.947-1.306zM8.542 15.444v6.06c1.674 1.016 4.066 1.634 6.967 1.634 5.88 0 9.668-2.521 9.668-5.502v-3.428l-6.43 2.94c-1.165.538-2.222.807-3.238.797-1.007.01-2.074-.259-3.24-.797l-3.727-1.704zM5.85 14.208v3.428c0 .867.499 1.944 1.396 2.861v-5.641l-1.396-.648zm1.396 9.608h1.296v-2.312a6.401 6.401 0 01-1.296-1.007v3.319zm-.788.07v2.621c0 .788.509 1.296 1.296 1.296h.27c.787 0 1.295-.508 1.295-1.296v-2.621c0-.788-.508-1.296-1.296-1.296h-.269c-.787 0-1.296.508-1.296 1.296z" fill="#262626"/></g><defs><clipPath id="clip0_141_2750"><path fill="#fff" d="M0 0h30v30H0z"/></clipPath></defs></svg>