<svg width="32" height="32" viewBox="0 0 32 32" fill="none" xmlns="http://www.w3.org/2000/svg">
<rect width="32" height="32" rx="6" fill="#EEF8D3"/>
<path d="M12.2803 11.2197C11.9874 10.9268 11.5126 10.9268 11.2197 11.2197C10.9268 11.5126 10.9268 11.9874 11.2197 12.2803L14.9393 16L11.2197 19.7197C10.9268 20.0126 10.9268 20.4874 11.2197 20.7803C11.5126 21.0732 11.9874 21.0732 12.2803 20.7803L16 17.0607L19.7197 20.7803C20.0126 21.0732 20.4874 21.0732 20.7803 20.7803C21.0732 20.4874 21.0732 20.0126 20.7803 19.7197L17.0607 16L20.7803 12.2803C21.0732 11.9874 21.0732 11.5126 20.7803 11.2197C20.4874 10.9268 20.0126 10.9268 19.7197 11.2197L16 14.9393L12.2803 11.2197Z" fill="#262626"/>
</svg>
