<svg width="40" height="40" viewBox="0 0 40 40" fill="none" xmlns="http://www.w3.org/2000/svg">
<path d="M15.0205 12.2221C10.4408 7.76607 13.5954 0 19.9853 0C26.3751 0 29.5298 7.76608 24.95 12.2221L19.9853 17.0526L15.0205 12.2221Z" fill="#1A3129"/>
<path d="M15.0498 27.7779C10.4701 32.2339 13.6247 40 20.0146 40C26.4044 40 29.5591 32.2339 24.9793 27.7779L20.0146 22.9474L15.0498 27.7779Z" fill="#1A3129"/>
<path d="M12.2221 24.979C7.76607 29.5588 0 26.4041 0 20.0142C0 13.6244 7.76608 10.4697 12.2221 15.0495L17.0526 20.0142L12.2221 24.979Z" fill="#1A3129"/>
<path d="M27.7779 24.9507C32.2339 29.5304 40 26.3758 40 19.9859C40 13.5961 32.2339 10.4414 27.7779 15.0212L22.9474 19.9859L27.7779 24.9507Z" fill="#1A3129"/>
</svg>
