<svg width="30" height="31" viewBox="0 0 30 31" fill="none" xmlns="http://www.w3.org/2000/svg">
<path d="M10.732 29.1169C11.7867 29.1169 12.4396 28.5268 12.4271 27.4973L12.176 13.397C12.176 12.9576 12.3643 12.6312 12.7535 12.4554C14.4109 11.7271 15.1266 10.9613 15.0387 8.76396L14.6871 1.05469C14.662 0.502232 14.3356 0.188337 13.8208 0.188337C13.3311 0.188337 13.0298 0.514788 13.0298 1.0798L13.1176 8.57562C13.1176 9.01507 12.8414 9.2913 12.4271 9.2913C12.0002 9.2913 11.6988 9.02762 11.6988 8.61328L11.5733 0.853795C11.5607 0.313895 11.2468 0 10.732 0C10.2173 0 9.91591 0.313895 9.90335 0.853795L9.77779 8.61328C9.77779 9.02762 9.47645 9.2913 9.04956 9.2913C8.63522 9.2913 8.34644 9.01507 8.34644 8.57562L8.43433 1.0798C8.43433 0.514788 8.14555 0.188337 7.64331 0.188337C7.12852 0.188337 6.80207 0.502232 6.77696 1.05469L6.43795 8.76396C6.33751 10.9613 7.05319 11.7271 8.71055 12.4554C9.09978 12.6312 9.28812 12.9576 9.28812 13.397L9.04956 27.4973C9.03701 28.5268 9.67735 29.1169 10.732 29.1169ZM20.5507 18.1682L20.287 27.4345C20.2494 28.5268 20.9147 29.1169 21.9569 29.1169C23.0242 29.1169 23.6771 28.577 23.6771 27.5726V0.941685C23.6771 0.301339 23.2376 0 22.7856 0C22.3085 0 21.9946 0.251116 21.5929 0.841239C19.5713 3.67885 18.2405 8.98995 18.2405 14.0123V14.6275C18.2405 15.4938 18.5543 16.1342 19.1821 16.5485L19.9229 17.0508C20.3749 17.3646 20.5757 17.7163 20.5507 18.1682Z" fill="#262626"/>
</svg>
