<svg width="30" height="30" viewBox="0 0 30 30" fill="none" xmlns="http://www.w3.org/2000/svg">
<g clip-path="url(#clip0_141_1137)">
<path d="M7.17076 2.0256C6.55552 3.4444 6.26674 4.86321 6.26674 6.24435C6.26674 10.8272 9.50613 14.5814 14.5535 14.5814C19.601 14.5814 22.8404 10.8272 22.8404 6.24435C22.8404 4.86321 22.5516 3.4444 21.949 2.0256C21.6728 1.42292 20.957 1.33503 20.4799 1.82471L17.6674 4.68743L15.2692 1.58615C14.88 1.08391 14.2271 1.08391 13.8505 1.58615L11.4523 4.68743L8.62723 1.82471C8.15011 1.33503 7.43443 1.42292 7.17076 2.0256ZM13.5491 27.3633C13.5491 27.9282 13.9886 28.3049 14.5535 28.3049C21.0449 28.3049 27.0089 24.2996 28.9677 18.6746C29.2439 17.9086 28.955 17.419 28.1389 17.419C21.7229 17.419 17.1024 21.1857 15.2442 25.9444L15.5706 26.3713V13.3133H13.5491V27.3633ZM11.829 22.5669C9.46847 19.5033 5.68917 17.419 0.930524 17.419C0.114396 17.419 -0.174387 17.9086 0.10184 18.6746C1.78431 23.5463 6.45508 27.2125 11.9294 28.0789C11.8666 27.8654 11.829 27.6143 11.829 27.3633V22.5669Z" fill="#262626"/>
</g>
<defs>
<clipPath id="clip0_141_1137">
<rect width="29.0695" height="27.2336" fill="white" transform="translate(0 1.07129)"/>
</clipPath>
</defs>
</svg>
