<svg width="30" height="30" viewBox="0 0 30 30" fill="none" xmlns="http://www.w3.org/2000/svg">
<path d="M2.64921 20.4189C3.5493 20.4189 4.23825 19.7299 4.23825 18.8521V10.4513C4.23825 9.56234 3.5493 8.86228 2.64921 8.86228C1.76024 8.86228 1.07129 9.56234 1.07129 10.4513V18.8521C1.07129 19.7299 1.76024 20.4189 2.64921 20.4189ZM7.9275 22.8748C9.40541 22.8748 10.4388 21.8857 10.4388 20.4856V8.82894C10.4388 7.41769 9.40541 6.42871 7.9275 6.42871C6.46068 6.42871 5.42726 7.41769 5.42726 8.82894V20.4856C5.42726 21.8857 6.46068 22.8748 7.9275 22.8748ZM11.7279 16.7964H18.6285V12.5071H11.7279V16.7964ZM22.4288 22.8748C23.9068 22.8748 24.9402 21.8857 24.9402 20.4856V8.82894C24.9402 7.41769 23.9068 6.42871 22.4288 6.42871C20.9621 6.42871 19.9286 7.41769 19.9286 8.82894V20.4856C19.9286 21.8857 20.9621 22.8748 22.4288 22.8748ZM27.5961 20.4189C28.485 20.4189 29.185 19.7299 29.185 18.8521V10.4513C29.185 9.56234 28.485 8.86228 27.5961 8.86228C26.7071 8.86228 26.0181 9.56234 26.0181 10.4513V18.8521C26.0181 19.7299 26.7071 20.4189 27.5961 20.4189Z" fill="#262626"/>
</svg>
