<svg width="30" height="30" viewBox="0 0 30 30" fill="none" xmlns="http://www.w3.org/2000/svg">
<path d="M8.17843 27.9909H21.5127C24.0992 27.9909 25.405 26.6725 25.405 24.0609V5.01381C25.405 2.38965 24.1117 1.07129 21.5127 1.07129H18.3236C17.8966 1.07129 17.6078 1.37263 17.6078 1.82464C17.6078 1.88742 17.6078 1.95019 17.6078 2.00042C17.6078 3.63267 16.5029 4.61203 14.8456 4.61203C13.1882 4.61203 12.0833 3.63267 12.0833 2.00042C12.0833 1.95019 12.0833 1.88742 12.0833 1.82464C12.0833 1.37263 11.7945 1.07129 11.3676 1.07129H8.17843C5.57938 1.07129 4.28613 2.38965 4.28613 5.01381V24.0609C4.28613 26.6725 5.59194 27.9909 8.17843 27.9909ZM10.0869 10.4254C9.63491 10.4254 9.30845 10.0864 9.30845 9.63435C9.30845 9.20745 9.63491 8.86844 10.0869 8.86844H19.6168C20.0563 8.86844 20.3826 9.20745 20.3826 9.63435C20.3826 10.0864 20.0563 10.4254 19.6168 10.4254H10.0869ZM10.0869 14.8826C9.63491 14.8826 9.30845 14.5436 9.30845 14.1168C9.30845 13.6773 9.63491 13.3383 10.0869 13.3383H14.5944C15.0465 13.3383 15.373 13.6773 15.373 14.1168C15.373 14.5436 15.0465 14.8826 14.5944 14.8826H10.0869Z" fill="#262626"/>
</svg>
