<svg width="30" height="33" viewBox="0 0 30 33" fill="none" xmlns="http://www.w3.org/2000/svg">
<path d="M10.778 31.4899H18.4496C22.819 31.4899 24.9786 29.2801 24.9409 24.8605C24.8907 19.8131 24.8656 16.1467 24.74 13.397C24.376 5.3111 22.1033 2.93806 14.62 2.93806C7.13679 2.93806 4.85163 5.3111 4.48751 13.397C4.36195 16.1467 4.33684 19.8131 4.28662 24.8605C4.24895 29.2801 6.40855 31.4899 10.778 31.4899ZM10.4138 26.5053C9.33405 26.5053 8.64348 25.8021 8.64348 24.7475V18.2687C8.64348 17.2015 9.33405 16.4983 10.4138 16.4983H18.8263C19.8935 16.4983 20.5841 17.2015 20.5841 18.2687V24.7475C20.5841 25.8021 19.8935 26.5053 18.8263 26.5053H10.4138ZM8.64348 21.3324H20.5841V19.8381H8.64348V21.3324ZM14.62 0C12.2093 0 10.5143 1.63226 10.5143 3.85464H12.2847C12.2847 2.63672 13.2389 1.77036 14.62 1.77036C15.9886 1.77036 16.9555 2.63672 16.9555 3.85464H18.7258C18.7258 1.63226 17.0182 0 14.62 0Z" fill="#262626"/>
</svg>
