<svg width="30" height="30" viewBox="0 0 30 30" fill="none" xmlns="http://www.w3.org/2000/svg">
<g clip-path="url(#clip0_141_1147)">
<path d="M27.9377 8.83579L18.1798 4.37051C17.1632 3.91202 16.3359 3.69274 15.5086 3.71267C14.6913 3.69274 13.864 3.91202 12.8374 4.37051L3.08946 8.83579C2.45156 9.12488 2.14258 9.63316 2.14258 10.1415C2.14258 10.6498 2.45156 11.1482 3.08946 11.4473L7.19596 13.3211L13.5052 10.3608C13.4454 10.2911 13.4254 10.2113 13.4254 10.1415C13.4254 9.51358 14.482 9.03515 15.5485 9.03515C16.6249 9.03515 17.6615 9.51358 17.6615 10.1415C17.6615 10.7894 16.6249 11.2778 15.5485 11.2778C15.2196 11.2778 14.8907 11.2279 14.6016 11.1482L8.58139 13.9689L12.8374 15.9225C13.864 16.3909 14.6913 16.5903 15.5086 16.5803C16.3359 16.5903 17.1632 16.3909 18.1798 15.9225L27.9377 11.4473C28.5756 11.1482 28.8846 10.6498 28.8846 10.1415C28.8846 9.63316 28.5756 9.12488 27.9377 8.83579ZM8.54153 15.4441V21.5042C10.216 22.5208 12.6082 23.1387 15.5086 23.1387C21.3893 23.1387 25.1768 20.6171 25.1768 17.6369V14.2081L18.7479 17.1485C17.5817 17.6867 16.5253 17.9558 15.5086 17.9459C14.5019 17.9558 13.4354 17.6867 12.2692 17.1485L8.54153 15.4441ZM5.85038 14.2081V17.6369C5.85038 18.504 6.34874 19.5804 7.24579 20.4975V14.856L5.85038 14.2081ZM7.24579 23.8165H8.54153V21.5042C8.04317 21.2051 7.60461 20.8663 7.24579 20.4975V23.8165ZM6.45838 23.8864V26.5077C6.45838 27.2951 6.96671 27.8034 7.75412 27.8034H8.02323C8.81064 27.8034 9.31897 27.2951 9.31897 26.5077V23.8864C9.31897 23.0989 8.81064 22.5906 8.02323 22.5906H7.75412C6.96671 22.5906 6.45838 23.0989 6.45838 23.8864Z" fill="#262626"/>
</g>
<defs>
<clipPath id="clip0_141_1147">
<rect width="30" height="30" fill="white"/>
</clipPath>
</defs>
</svg>
