<svg width="26" height="26" fill="none" xmlns="http://www.w3.org/2000/svg"><path fill-rule="evenodd" clip-rule="evenodd" d="M1.625 4.875a3.25 3.25 0 013.25-3.25h1.486a2.03 2.03 0 011.97 1.539L9.53 7.955a2.031 2.031 0 01-.751 2.118l-1.402 1.051c-.145.11-.177.27-.136.38a12.226 12.226 0 007.255 7.256c.112.041.272.01.38-.136l1.052-1.402a2.031 2.031 0 012.118-.752l4.791 1.199a2.031 2.031 0 011.539 1.97v1.486a3.25 3.25 0 01-3.25 3.25h-2.438c-9.423 0-17.062-7.64-17.062-17.063V4.876z" fill="#CBEA7B"/></svg>