<svg width="30" height="30" fill="none" xmlns="http://www.w3.org/2000/svg"><g clip-path="url(#clip0_141_1137)"><path d="M7.17 2.026c-.614 1.418-.903 2.837-.903 4.218 0 4.583 3.24 8.337 8.287 8.337 5.047 0 8.286-3.754 8.286-8.337 0-1.38-.288-2.8-.891-4.218-.276-.603-.992-.691-1.47-.201l-2.812 2.862-2.398-3.1c-.389-.503-1.042-.503-1.418 0l-2.399 3.1-2.825-2.862c-.477-.49-1.193-.402-1.456.2zm6.38 25.337c0 .565.439.942 1.003.942 6.492 0 12.456-4.005 14.415-9.63.276-.766-.013-1.256-.83-1.256-6.415 0-11.036 3.767-12.894 8.525l.327.427V13.313h-2.022v14.05zm-1.721-4.796c-2.36-3.064-6.14-5.148-10.898-5.148-.817 0-1.105.49-.83 1.256 1.683 4.871 6.354 8.537 11.828 9.404a2.593 2.593 0 01-.1-.716v-4.796z" fill="#262626"/></g><defs><clipPath id="clip0_141_1137"><path fill="#fff" transform="translate(0 1.071)" d="M0 0h29.07v27.234H0z"/></clipPath></defs></svg>