<svg width="30" height="30" fill="none" xmlns="http://www.w3.org/2000/svg"><path d="M2.65 20.419c.9 0 1.588-.69 1.588-1.567v-8.4c0-.89-.689-1.59-1.589-1.59-.889 0-1.578.7-1.578 1.59v8.4c0 .878.69 1.567 1.578 1.567zm5.277 2.456c1.478 0 2.512-.99 2.512-2.39V8.83c0-1.411-1.034-2.4-2.511-2.4-1.467 0-2.5.989-2.5 2.4v11.657c0 1.4 1.033 2.389 2.5 2.389zm3.8-6.079h6.901v-4.289h-6.9v4.29zm10.702 6.079c1.478 0 2.511-.99 2.511-2.39V8.83c0-1.411-1.033-2.4-2.511-2.4-1.467 0-2.5.989-2.5 2.4v11.657c0 1.4 1.033 2.389 2.5 2.389zm5.167-2.456c.889 0 1.589-.69 1.589-1.567v-8.4c0-.89-.7-1.59-1.589-1.59s-1.578.7-1.578 1.59v8.4c0 .878.69 1.567 1.578 1.567z" fill="#262626"/></svg>