<svg width="30" height="31" fill="none" xmlns="http://www.w3.org/2000/svg"><path d="M10.732 29.117c1.055 0 1.708-.59 1.695-1.62l-.251-14.1c0-.44.188-.766.578-.942 1.657-.728 2.373-1.494 2.285-3.691l-.352-7.71c-.025-.552-.351-.866-.866-.866-.49 0-.791.327-.791.892l.088 7.496c0 .44-.277.715-.69.715-.428 0-.73-.263-.73-.678l-.125-7.76C11.561.314 11.247 0 10.732 0c-.515 0-.816.314-.829.854l-.125 7.76c0 .414-.302.677-.728.677-.415 0-.704-.276-.704-.715l.088-7.496c0-.565-.288-.892-.79-.892-.515 0-.842.314-.867.867l-.34 7.709c-.1 2.197.616 2.963 2.274 3.691.389.176.577.503.577.942l-.238 14.1c-.013 1.03.627 1.62 1.682 1.62zm9.819-10.949l-.264 9.267c-.038 1.092.628 1.682 1.67 1.682 1.067 0 1.72-.54 1.72-1.544V.942c0-.64-.44-.942-.891-.942-.478 0-.791.251-1.193.841C19.57 3.68 18.24 8.99 18.24 14.012v.615c0 .867.313 1.507.941 1.921l.74.503c.453.314.654.665.629 1.117z" fill="#262626"/></svg>