<svg width="30" height="33" fill="none" xmlns="http://www.w3.org/2000/svg"><path d="M10.778 31.49h7.672c4.369 0 6.529-2.21 6.49-6.63-.05-5.047-.074-8.713-.2-11.463-.364-8.086-2.637-10.459-10.12-10.459-7.483 0-9.768 2.373-10.132 10.459-.126 2.75-.151 6.416-.201 11.463-.038 4.42 2.122 6.63 6.491 6.63zm-.364-4.985c-1.08 0-1.77-.703-1.77-1.758V18.27c0-1.067.69-1.77 1.77-1.77h8.412c1.067 0 1.758.703 1.758 1.77v6.479c0 1.054-.69 1.757-1.758 1.757h-8.412zm-1.77-5.173h11.94v-1.494H8.644v1.494zM14.62 0c-2.41 0-4.106 1.632-4.106 3.855h1.77c0-1.218.955-2.085 2.336-2.085 1.369 0 2.336.867 2.336 2.085h1.77C18.726 1.632 17.018 0 14.62 0z" fill="#262626"/></svg>