<svg width="30" height="30" fill="none" xmlns="http://www.w3.org/2000/svg"><path d="M8.178 27.99h13.335c2.586 0 3.892-1.317 3.892-3.93V5.015c0-2.624-1.293-3.943-3.892-3.943h-3.19c-.426 0-.715.302-.715.754V2c0 1.633-1.105 2.612-2.762 2.612-1.658 0-2.763-.98-2.763-2.612v-.175c0-.452-.289-.754-.715-.754h-3.19c-2.599 0-3.892 1.319-3.892 3.943V24.06c0 2.611 1.306 3.93 3.892 3.93zm1.909-17.565c-.452 0-.779-.339-.779-.79 0-.428.327-.767.779-.767h9.53c.44 0 .766.34.766.766 0 .452-.327.791-.766.791h-9.53zm0 4.458a.756.756 0 01-.779-.766.76.76 0 01.779-.779h4.507a.76.76 0 01.779.779.756.756 0 01-.779.766h-4.507z" fill="#262626"/></svg>