<svg width="30" height="30" fill="none" xmlns="http://www.w3.org/2000/svg"><g clip-path="url(#clip0_141_1147)"><path d="M27.938 8.836L18.18 4.37c-1.017-.459-1.844-.678-2.671-.658-.818-.02-1.645.199-2.672.658L3.09 8.836c-.637.289-.946.797-.946 1.306 0 .508.309 1.006.946 1.305l4.107 1.874 6.31-2.96a.332.332 0 01-.08-.22c0-.627 1.056-1.106 2.123-1.106 1.076 0 2.113.479 2.113 1.107 0 .647-1.037 1.136-2.113 1.136-.33 0-.658-.05-.947-.13l-6.02 2.82 4.255 1.954c1.027.469 1.854.668 2.672.658.827.01 1.654-.19 2.67-.657l9.759-4.476c.638-.299.947-.797.947-1.305 0-.509-.31-1.017-.947-1.306zM8.542 15.444v6.06c1.674 1.017 4.066 1.635 6.967 1.635 5.88 0 9.668-2.522 9.668-5.502v-3.429l-6.43 2.94c-1.165.539-2.222.808-3.238.798-1.007.01-2.074-.26-3.24-.798l-3.727-1.704zM5.85 14.208v3.429c0 .867.499 1.943 1.396 2.86v-5.641l-1.396-.648zm1.396 9.609h1.296v-2.313a6.401 6.401 0 01-1.296-1.007v3.32zm-.788.07v2.62c0 .788.509 1.296 1.296 1.296h.27c.787 0 1.295-.508 1.295-1.295v-2.622c0-.787-.508-1.295-1.296-1.295h-.269c-.787 0-1.296.508-1.296 1.295z" fill="#262626"/></g><defs><clipPath id="clip0_141_1147"><path fill="#fff" d="M0 0h30v30H0z"/></clipPath></defs></svg>