<svg width="26" height="26" viewBox="0 0 26 26" fill="none" xmlns="http://www.w3.org/2000/svg">
<path fill-rule="evenodd" clip-rule="evenodd" d="M1.625 4.875C1.625 3.08007 3.08007 1.625 4.875 1.625H6.36093C7.293 1.625 8.10547 2.25935 8.33153 3.1636L9.52948 7.95538C9.72769 8.74824 9.43143 9.58268 8.77762 10.073L7.3762 11.1241C7.23068 11.2332 7.19904 11.3931 7.23992 11.5047C8.47005 14.8628 11.1372 17.5299 14.4953 18.7601C14.6069 18.801 14.7668 18.7693 14.8759 18.6238L15.927 17.2224C16.4173 16.5686 17.2518 16.2723 18.0446 16.4705L22.8364 17.6685C23.7406 17.8945 24.375 18.707 24.375 19.6391V21.125C24.375 22.9199 22.9199 24.375 21.125 24.375H18.6875C9.26414 24.375 1.625 16.7359 1.625 7.3125V4.875Z" fill="#CBEA7B"/>
</svg>
