<svg width="30" height="30" viewBox="0 0 30 30" fill="none" xmlns="http://www.w3.org/2000/svg">
<g clip-path="url(#clip0_141_2740)">
<path d="M7.17076 2.02511C6.55552 3.44391 6.26674 4.86272 6.26674 6.24386C6.26674 10.8267 9.50613 14.5809 14.5535 14.5809C19.601 14.5809 22.8404 10.8267 22.8404 6.24386C22.8404 4.86272 22.5516 3.44391 21.949 2.02511C21.6728 1.42243 20.957 1.33454 20.4799 1.82422L17.6674 4.68694L15.2692 1.58566C14.88 1.08343 14.2271 1.08343 13.8505 1.58566L11.4523 4.68694L8.62723 1.82422C8.15011 1.33454 7.43443 1.42243 7.17076 2.02511ZM13.5491 27.3628C13.5491 27.9277 13.9886 28.3044 14.5535 28.3044C21.0449 28.3044 27.0089 24.2991 28.9677 18.6741C29.2439 17.9082 28.955 17.4185 28.1389 17.4185C21.7229 17.4185 17.1024 21.1852 15.2442 25.9439L15.5706 26.3708V13.3128H13.5491V27.3628ZM11.829 22.5664C9.46847 19.5028 5.68917 17.4185 0.930524 17.4185C0.114396 17.4185 -0.174387 17.9082 0.10184 18.6741C1.78431 23.5458 6.45508 27.212 11.9294 28.0784C11.8666 27.8649 11.829 27.6138 11.829 27.3628V22.5664Z" fill="#262626"/>
</g>
<defs>
<clipPath id="clip0_141_2740">
<rect width="29.0695" height="27.2336" fill="white" transform="translate(0 1.07129)"/>
</clipPath>
</defs>
</svg>
