<svg width="30" height="30" viewBox="0 0 30 30" fill="none" xmlns="http://www.w3.org/2000/svg">
<g clip-path="url(#clip0_141_2750)">
<path d="M27.9377 8.8353L18.1798 4.37002C17.1632 3.91153 16.3359 3.69225 15.5086 3.71218C14.6913 3.69225 13.864 3.91153 12.8374 4.37002L3.08946 8.8353C2.45156 9.1244 2.14258 9.63268 2.14258 10.141C2.14258 10.6493 2.45156 11.1477 3.08946 11.4468L7.19596 13.3206L13.5052 10.3603C13.4454 10.2906 13.4254 10.2108 13.4254 10.141C13.4254 9.51309 14.482 9.03466 15.5485 9.03466C16.6249 9.03466 17.6615 9.51309 17.6615 10.141C17.6615 10.7889 16.6249 11.2773 15.5485 11.2773C15.2196 11.2773 14.8907 11.2274 14.6016 11.1477L8.58139 13.9684L12.8374 15.922C13.864 16.3904 14.6913 16.5898 15.5086 16.5798C16.3359 16.5898 17.1632 16.3904 18.1798 15.922L27.9377 11.4468C28.5756 11.1477 28.8846 10.6493 28.8846 10.141C28.8846 9.63268 28.5756 9.1244 27.9377 8.8353ZM8.54153 15.4436V21.5037C10.216 22.5203 12.6082 23.1382 15.5086 23.1382C21.3893 23.1382 25.1768 20.6166 25.1768 17.6364V14.2076L18.7479 17.148C17.5817 17.6862 16.5253 17.9553 15.5086 17.9454C14.5019 17.9553 13.4354 17.6862 12.2692 17.148L8.54153 15.4436ZM5.85038 14.2076V17.6364C5.85038 18.5035 6.34874 19.5799 7.24579 20.497V14.8556L5.85038 14.2076ZM7.24579 23.816H8.54153V21.5037C8.04317 21.2046 7.60461 20.8658 7.24579 20.497V23.816ZM6.45838 23.8859V26.5072C6.45838 27.2946 6.96671 27.8029 7.75412 27.8029H8.02323C8.81064 27.8029 9.31897 27.2946 9.31897 26.5072V23.8859C9.31897 23.0984 8.81064 22.5901 8.02323 22.5901H7.75412C6.96671 22.5901 6.45838 23.0984 6.45838 23.8859Z" fill="#262626"/>
</g>
<defs>
<clipPath id="clip0_141_2750">
<rect width="30" height="30" fill="white"/>
</clipPath>
</defs>
</svg>
