<svg width="30" height="30" viewBox="0 0 30 30" fill="none" xmlns="http://www.w3.org/2000/svg">
<path d="M8.17745 27.9909H21.5117C24.0982 27.9909 25.404 26.6725 25.404 24.0609V5.01381C25.404 2.38965 24.1108 1.07129 21.5117 1.07129H18.3226C17.8956 1.07129 17.6069 1.37263 17.6069 1.82464C17.6069 1.88742 17.6069 1.95019 17.6069 2.00042C17.6069 3.63267 16.5019 4.61203 14.8446 4.61203C13.1872 4.61203 12.0823 3.63267 12.0823 2.00042C12.0823 1.95019 12.0823 1.88742 12.0823 1.82464C12.0823 1.37263 11.7935 1.07129 11.3666 1.07129H8.17745C5.5784 1.07129 4.28516 2.38965 4.28516 5.01381V24.0609C4.28516 26.6725 5.59096 27.9909 8.17745 27.9909ZM10.0859 10.4254C9.63393 10.4254 9.30748 10.0864 9.30748 9.63435C9.30748 9.20745 9.63393 8.86844 10.0859 8.86844H19.6158C20.0553 8.86844 20.3817 9.20745 20.3817 9.63435C20.3817 10.0864 20.0553 10.4254 19.6158 10.4254H10.0859ZM10.0859 14.8826C9.63393 14.8826 9.30748 14.5436 9.30748 14.1168C9.30748 13.6773 9.63393 13.3383 10.0859 13.3383H14.5935C15.0455 13.3383 15.372 13.6773 15.372 14.1168C15.372 14.5436 15.0455 14.8826 14.5935 14.8826H10.0859Z" fill="#262626"/>
</svg>
