<svg width="105" height="79" viewBox="0 0 105 79" fill="none" xmlns="http://www.w3.org/2000/svg">
<path d="M42.434 34.5273C29.4961 21.9392 38.4081 0 56.4594 0C74.5107 0 83.4226 21.9392 70.4848 34.5273L56.4594 48.1737L42.434 34.5273Z" fill="#EEF8D3"/>
<path d="M42.516 78.4727C29.5782 91.0608 38.4901 113 56.5414 113C74.5927 113 83.5047 91.0608 70.5668 78.4727L56.5414 64.8263L42.516 78.4727Z" fill="#EEF8D3"/>
<path d="M34.5273 70.5651C21.9392 83.5029 0 74.5909 0 56.5396C0 38.4883 21.9392 29.5764 34.5273 42.5142L48.1737 56.5396L34.5273 70.5651Z" fill="#EEF8D3"/>
<path d="M78.4727 70.484C91.0608 83.4218 113 74.5099 113 56.4586C113 38.4073 91.0608 29.4953 78.4727 42.4332L64.8263 56.4586L78.4727 70.484Z" fill="#EEF8D3"/>
</svg>
