<svg width="34" height="34" viewBox="0 0 34 34" fill="none" xmlns="http://www.w3.org/2000/svg">
<path d="M22.3792 25.5786L12.1558 8.1776C11.7275 7.4467 11.1277 7.23118 10.4423 7.29678C9.88072 7.36237 9.13829 7.65286 8.45289 8.04642C6.07317 9.40514 5.16887 11.4948 2.85575 12.8066C1.84675 13.3782 0.970998 13.5937 0.552164 13.828C0.0571774 14.1091 -0.161759 14.5776 0.133329 15.093L3.95996 21.6243C4.38831 22.3552 4.99752 22.5613 5.67337 22.4957C6.23499 22.4301 6.98699 22.1396 7.66283 21.7367C10.0521 20.378 10.9468 18.2977 13.26 16.9765C14.031 16.5454 14.7354 16.3112 15.1828 16.1425L21.1322 26.2907C21.3321 26.6375 21.7604 26.7499 22.1126 26.5532C22.4458 26.3564 22.5695 25.916 22.3792 25.5786ZM17.6578 15.3086L18.4859 16.7141L18.819 16.1425C19.2664 16.3112 19.9613 16.5454 20.7419 16.9765C23.0455 18.2977 23.9498 20.378 26.3295 21.7367C27.0149 22.1396 27.7574 22.4301 28.319 22.4957C29.0044 22.5613 29.6041 22.3552 30.0324 21.6243L33.8686 15.093C34.1637 14.5776 33.9352 14.1091 33.4498 13.828C33.0309 13.5937 32.1456 13.3782 31.1366 12.8066C28.8235 11.4948 27.9287 9.40514 25.549 8.04642C24.8637 7.65286 24.1116 7.36237 23.5595 7.29678C22.8741 7.23118 22.2745 7.4467 21.8461 8.1776L17.6578 15.3086ZM16.3442 20.3686L15.5064 18.9536L11.6228 25.5786C11.4228 25.916 11.5561 26.3564 11.8893 26.5532C12.2415 26.7499 12.6698 26.6375 12.8602 26.2907L16.3442 20.3686Z" fill="#262626"/>
</svg>
