<svg width="34" height="34" viewBox="0 0 34 34" fill="none" xmlns="http://www.w3.org/2000/svg">
<path d="M16.4765 24.0772H17.6544C24.1979 24.0772 28.6082 19.659 28.6082 12.8021V10.1407C28.6082 7.02038 23.9492 4.89648 17.0654 4.89648C10.1817 4.89648 5.52271 7.02038 5.52271 10.1407V12.8021C5.52271 19.4229 9.91994 24.0772 16.4765 24.0772ZM17.0654 13.3397C11.5951 13.3397 7.56429 11.9499 7.56429 10.1407C7.56429 8.34455 11.5951 6.94172 17.0654 6.94172C22.5489 6.94172 26.5797 8.34455 26.5797 10.1407C26.5797 11.9499 22.5489 13.3397 17.0654 13.3397ZM27.1948 18.2823H28.2286C31.147 18.2823 32.9007 16.7484 32.9007 14.205C32.9007 11.6746 31.134 10.1276 28.2286 10.1276H27.391V12.1597H28.2286C29.8907 12.1597 30.8591 12.9201 30.8591 14.205C30.8591 15.4767 29.8907 16.2502 28.2286 16.2502H27.1948V18.2823ZM17.0001 30.3572C26.9461 30.3572 34 27.5252 34 23.4085C34 21.809 32.9138 20.4062 31.0031 19.2787C30.2179 19.6065 29.3542 19.7901 28.3726 19.8163C26.2918 23.4479 22.4834 25.6111 17.6544 25.6111H16.4765C11.0978 25.6111 6.89684 22.753 5.02541 18.2823C1.84526 19.5148 0 21.2977 0 23.4085C0 27.5252 7.06697 30.3572 17.0001 30.3572Z" fill="#1C1C1E"/>
</svg>
