<svg width="34" height="34" viewBox="0 0 34 34" fill="none" xmlns="http://www.w3.org/2000/svg">
<path d="M0 13.908C0 15.2599 0.825335 16.0852 2.17718 16.0852H31.135C32.4869 16.0852 33.3264 15.2599 33.3264 13.908V13.2108C33.3264 11.8731 32.4869 11.0194 31.135 11.0194H2.17718C0.825335 11.0194 0 11.8731 0 13.2108V13.908ZM9.05022 31.7097H24.2762C27.5633 31.7097 28.5879 29.7886 29.0005 27.7252L30.9785 18.0346H2.36216L4.32589 27.7252C4.73856 29.7886 5.76311 31.7097 9.05022 31.7097ZM9.97516 29.262C9.43443 29.3475 9.036 29.0629 8.95061 28.579L7.72684 21.4214C7.64146 20.9376 7.95452 20.5534 8.49525 20.4537C9.036 20.3826 9.44866 20.653 9.53404 21.1368L10.7436 28.2945C10.8147 28.7783 10.5301 29.1625 9.97516 29.262ZM14.4861 29.2478C13.9453 29.2764 13.5468 28.949 13.5184 28.451L13.0488 21.3788C13.0204 20.8807 13.3761 20.5249 13.9026 20.4823C14.4575 20.4395 14.8275 20.7811 14.8703 21.2791L15.3398 28.3513C15.3682 28.8494 15.0126 29.2194 14.4861 29.2478ZM18.8689 29.2478C18.3282 29.2194 17.9724 28.8494 18.0008 28.3513L18.4704 21.2791C18.5131 20.7811 18.8831 20.4395 19.438 20.4823C19.9646 20.5249 20.3203 20.8807 20.2918 21.3788L19.8222 28.451C19.7938 28.949 19.3954 29.2764 18.8689 29.2478ZM23.3513 29.262C22.7963 29.1625 22.5118 28.7783 22.5829 28.2945L23.7925 21.1368C23.8778 20.653 24.2904 20.3826 24.8312 20.4537C25.3719 20.5534 25.6849 20.966 25.5996 21.4498L24.3758 28.579C24.2904 29.0629 23.8778 29.3475 23.3513 29.262ZM4.58203 11.6312H7.42802L12.437 2.93677C12.8212 2.25373 12.5081 1.65607 11.9816 1.37148C11.4693 1.10111 10.7863 1.1438 10.4021 1.78414L4.58203 11.6312ZM25.8984 11.6312H28.7444L22.9244 1.78414C22.5544 1.15803 21.8714 1.11534 21.3448 1.37148C20.8325 1.65607 20.5053 2.25373 20.8895 2.93677L25.8984 11.6312Z" fill="#262626"/>
</svg>
