<svg width="34" height="36" viewBox="0 0 34 36" fill="none" xmlns="http://www.w3.org/2000/svg">
<path d="M10.1006 33.661H23.901C26.591 33.661 27.9294 32.2683 27.9294 29.4561V9.14189C27.9294 6.32975 26.591 4.93708 24.031 4.93708H23.7322C23.7322 4.99065 23.7322 5.0576 23.7322 5.11117V6.69132C23.7322 8.37859 22.6276 9.5704 21.0163 9.5704H12.9855C11.3741 9.5704 10.2696 8.37859 10.2696 6.69132V5.11117C10.2696 5.0576 10.2696 4.99065 10.2696 4.93708H9.97069C7.41072 4.93708 6.07227 6.32975 6.07227 9.14189V29.4561C6.07227 32.2683 7.41072 33.661 10.1006 33.661ZM12.9855 8.01703H21.0163C21.7699 8.01703 22.2247 7.52156 22.2247 6.69132V5.28525C22.2247 4.455 21.7699 3.95953 21.0163 3.95953H19.8207C19.7298 2.44633 18.5082 1.21436 17.0009 1.21436C15.4935 1.21436 14.272 2.44633 14.181 3.95953H12.9855C12.2318 3.95953 11.777 4.455 11.777 5.28525V6.69132C11.777 7.52156 12.2318 8.01703 12.9855 8.01703ZM17.0009 5.23168C16.3771 5.23168 15.8703 4.69605 15.8703 4.06666C15.8703 3.4105 16.3771 2.88824 17.0009 2.88824C17.6246 2.88824 18.1314 3.4105 18.1314 4.06666C18.1314 4.69605 17.6246 5.23168 17.0009 5.23168Z" fill="#262626"/>
</svg>
