<svg width="34" height="36" viewBox="0 0 34 36" fill="none" xmlns="http://www.w3.org/2000/svg">
<path d="M12.1623 32.9992C13.3576 32.9992 14.0975 32.3304 14.0833 31.1636L13.7987 15.1833C13.7987 14.6853 14.0122 14.3153 14.4533 14.1161C16.3316 13.2907 17.1427 12.4228 17.0431 9.93248L16.6447 1.19531C16.6162 0.569196 16.2462 0.213448 15.6628 0.213448C15.1079 0.213448 14.7663 0.583427 14.7663 1.22377L14.8659 9.71903C14.8659 10.2171 14.5529 10.5301 14.0833 10.5301C13.5995 10.5301 13.258 10.2313 13.258 9.76172L13.1157 0.967634C13.1014 0.355748 12.7457 0 12.1623 0C11.5788 0 11.2373 0.355748 11.2231 0.967634L11.0808 9.76172C11.0808 10.2313 10.7393 10.5301 10.2555 10.5301C9.78587 10.5301 9.45858 10.2171 9.45858 9.71903L9.55819 1.22377C9.55819 0.583427 9.2309 0.213448 8.66171 0.213448C8.07828 0.213448 7.7083 0.569196 7.67984 1.19531L7.29563 9.93248C7.18179 12.4228 7.9929 13.2907 9.87124 14.1161C10.3124 14.3153 10.5258 14.6853 10.5258 15.1833L10.2555 31.1636C10.2412 32.3304 10.9669 32.9992 12.1623 32.9992ZM23.29 20.5906L22.9912 31.0924C22.9486 32.3304 23.7027 32.9992 24.8838 32.9992C26.0933 32.9992 26.8333 32.3873 26.8333 31.2489V1.06724C26.8333 0.341518 26.3352 0 25.8229 0C25.2822 0 24.9265 0.284598 24.4712 0.953404C22.1801 4.16936 20.6718 10.1886 20.6718 15.8806V16.5778C20.6718 17.5597 21.0275 18.2854 21.739 18.755L22.5786 19.3243C23.0908 19.6799 23.3185 20.0785 23.29 20.5906Z" fill="#262626"/>
</svg>
