<svg width="34" height="34" viewBox="0 0 34 34" fill="none" xmlns="http://www.w3.org/2000/svg">
<path d="M3.33587 19.4712H4.63079V16.6109H3.33587V19.4712ZM10.0666 32.8757C11.8454 32.8757 12.6707 31.2393 11.7031 29.5032L6.38107 20.0973C5.92572 19.3145 5.24268 18.9589 4.38888 18.9589C3.05127 18.9589 2.32554 19.9549 2.43938 21.2783C2.72398 22.9717 3.86238 25.6753 5.24268 27.8953C7.41986 31.5808 8.68631 32.8757 10.0666 32.8757ZM30.8139 19.4712V16.6109H29.5189V19.4712H30.8139ZM24.0831 32.8757C25.4633 32.8757 26.7298 31.5808 28.9071 27.8953C30.2731 25.6753 31.4257 22.9717 31.7104 21.2783C31.8241 19.9549 31.0985 18.9589 29.7608 18.9589C28.9071 18.9589 28.224 19.3145 27.7687 20.0973L22.4467 29.5032C21.4648 31.2393 22.3044 32.8757 24.0831 32.8757ZM2.85205 16.369C2.85205 17.0377 3.27895 17.4505 3.94775 17.4505C4.61656 17.4505 5.015 17.0377 5.015 16.369C5.08615 8.69908 9.65395 3.83245 17.0678 3.83245C24.4958 3.83245 29.0494 8.69908 29.1204 16.369C29.1204 17.0377 29.5331 17.4505 30.202 17.4505C30.8708 17.4505 31.2834 17.0377 31.2834 16.369C31.2834 7.64607 25.9187 1.65527 17.0678 1.65527C8.21673 1.65527 2.85205 7.64607 2.85205 16.369Z" fill="#262626"/>
<path d="M14.3213 30.0584C15.2319 29.5319 15.474 28.3508 14.8905 27.3404L10.095 18.8737C9.51158 17.8633 8.37319 17.4933 7.4767 18.0198C6.92174 18.3187 6.79367 18.8452 7.07827 19.3433L12.9695 29.7026C13.2683 30.2149 13.7806 30.3572 14.3213 30.0584ZM19.8283 30.0584C20.369 30.3572 20.8813 30.2149 21.1659 29.7026L27.057 19.3433C27.3559 18.8452 27.2279 18.3187 26.6728 18.0198C25.7621 17.4933 24.6379 17.8633 24.0404 18.8737L19.2448 27.3404C18.6615 28.3508 18.9175 29.5319 19.8283 30.0584ZM8.7574 8.78467C11.0911 7.51821 13.8232 6.89209 17.0677 6.89209C20.3264 6.89209 23.0585 7.51821 25.3779 8.78467C23.5139 6.39404 20.8529 5.19873 17.0677 5.19873C13.2967 5.19873 10.6357 6.39404 8.7574 8.78467Z" fill="#262626"/>
</svg>
