<svg width="34" height="34" viewBox="0 0 34 34" fill="none" xmlns="http://www.w3.org/2000/svg">
<path d="M16.4975 31.1587C16.7252 31.1587 17.0809 31.0733 17.4367 30.8883C25.5334 26.6478 28.1376 24.5275 28.1376 19.419V8.68966C28.1376 7.22398 27.5114 6.75439 26.3162 6.25634C24.6513 5.57331 19.3293 3.63804 17.6786 3.06885C17.2944 2.94078 16.8959 2.86963 16.4975 2.86963C16.099 2.86963 15.7006 2.95501 15.3306 3.06885C13.6657 3.60958 8.34375 5.58754 6.67885 6.25634C5.49777 6.74016 4.85742 7.22398 4.85742 8.68966V19.419C4.85742 24.5275 7.6038 26.4059 15.5583 30.8883C15.9283 31.0876 16.2698 31.1587 16.4975 31.1587ZM10.0798 17.4837C10.0798 17.313 10.1652 17.0995 10.3217 16.9146L18.3616 6.82554C18.9735 6.05713 19.9981 6.56941 19.6281 7.52281L16.9813 14.6378H21.9475C22.3317 14.6378 22.6164 14.9081 22.6164 15.2924C22.6164 15.4631 22.531 15.6766 22.3745 15.8615L14.3345 25.9506C13.7227 26.719 12.7123 26.2066 13.0681 25.2675L15.7291 18.1383H10.7486C10.3786 18.1383 10.0798 17.8679 10.0798 17.4837Z" fill="#262626"/>
</svg>
