<svg width="34" height="35" viewBox="0 0 34 35" fill="none" xmlns="http://www.w3.org/2000/svg">
<path d="M6.07227 21.4161C6.07227 22.6256 6.88337 23.4225 8.16407 23.4225H15.8624V30.0678C15.8624 32.2451 16.7732 34.0523 17.1289 34.0523C17.4704 34.0523 18.3811 32.2451 18.3811 30.0678V23.4225H26.0796C27.3602 23.4225 28.1713 22.6256 28.1713 21.4161C28.1713 18.4136 25.7665 15.2403 21.7679 13.7889L21.2983 7.25732C23.3758 6.07625 25.0834 4.73863 25.8234 3.78523C26.1933 3.30141 26.3784 2.81759 26.3784 2.3907C26.3784 1.52268 25.7096 0.882324 24.7135 0.882324H9.54437C8.53404 0.882324 7.87946 1.52268 7.87946 2.3907C7.87946 2.81759 8.05023 3.30141 8.4202 3.78523C9.16016 4.73863 10.8677 6.07625 12.9453 7.25732L12.4757 13.7889C8.47712 15.2403 6.07227 18.4136 6.07227 21.4161Z" fill="#1C1C1E"/>
</svg>
