<svg width="34" height="34" viewBox="0 0 34 34" fill="none" xmlns="http://www.w3.org/2000/svg">
<path d="M31.6684 11.6652L20.1483 6.40741C18.9481 5.86755 17.9714 5.60934 16.9946 5.63281C16.0298 5.60934 15.053 5.86755 13.841 6.40741L2.33273 11.6652C1.57963 12.0056 1.21484 12.6041 1.21484 13.2027C1.21484 13.8012 1.57963 14.3881 2.33273 14.7402L7.18083 16.9466L14.6295 13.4609C14.5589 13.3788 14.5353 13.2848 14.5353 13.2027C14.5353 12.4633 15.7826 11.9 17.0417 11.9C18.3126 11.9 19.5364 12.4633 19.5364 13.2027C19.5364 13.9656 18.3126 14.5406 17.0417 14.5406C16.6534 14.5406 16.2651 14.4819 15.9238 14.3881L8.81646 17.7095L13.841 20.0098C15.053 20.5613 16.0298 20.7961 16.9946 20.7844C17.9714 20.7961 18.9481 20.5613 20.1483 20.0098L31.6684 14.7402C32.4215 14.3881 32.7863 13.8012 32.7863 13.2027C32.7863 12.6041 32.4215 12.0056 31.6684 11.6652ZM8.7694 19.4465V26.5821C10.7463 27.7792 13.5704 28.5068 16.9946 28.5068C23.9373 28.5068 28.4088 25.5376 28.4088 22.0284V17.9911L20.819 21.4534C19.4422 22.0871 18.195 22.404 16.9946 22.3923C15.8061 22.404 14.5471 22.0871 13.1703 21.4534L8.7694 19.4465ZM5.59225 17.9911V22.0284C5.59225 23.0494 6.18061 24.3169 7.23966 25.3967V18.754L5.59225 17.9911ZM7.23966 29.3049H8.7694V26.5821C8.18103 26.23 7.66328 25.831 7.23966 25.3967V29.3049ZM6.31005 29.3871V32.4737C6.31005 33.4009 6.91018 33.9994 7.83979 33.9994H8.1575C9.08711 33.9994 9.68724 33.4009 9.68724 32.4737V29.3871C9.68724 28.4599 9.08711 27.8613 8.1575 27.8613H7.83979C6.91018 27.8613 6.31005 28.4599 6.31005 29.3871Z" fill="#1C1C1E"/>
</svg>
