<svg width="34" height="36" viewBox="0 0 34 36" fill="none" xmlns="http://www.w3.org/2000/svg">
<path d="M12.9419 33.8251H21.0599C25.6835 33.8251 27.9689 31.4514 27.929 26.704C27.8758 21.2823 27.8493 17.3441 27.7164 14.3905C27.3311 5.70495 24.9263 3.15593 17.0075 3.15593C9.0888 3.15593 6.67067 5.70495 6.28536 14.3905C6.1525 17.3441 6.12592 21.2823 6.07278 26.704C6.03292 31.4514 8.31818 33.8251 12.9419 33.8251ZM12.5566 28.4708C11.4139 28.4708 10.6832 27.7155 10.6832 26.5827V19.6234C10.6832 18.477 11.4139 17.7217 12.5566 17.7217H21.4585C22.5879 17.7217 23.3186 18.477 23.3186 19.6234V26.5827C23.3186 27.7155 22.5879 28.4708 21.4585 28.4708H12.5566ZM10.6832 22.9143H23.3186V21.3092H10.6832V22.9143ZM17.0075 0C14.4565 0 12.6628 1.7533 12.6628 4.14048H14.5362C14.5362 2.83225 15.546 1.90165 17.0075 1.90165C18.4557 1.90165 19.4788 2.83225 19.4788 4.14048H21.3522C21.3522 1.7533 19.5453 0 17.0075 0Z" fill="#1C1C1E"/>
</svg>
