<svg width="105" height="79" fill="none" xmlns="http://www.w3.org/2000/svg"><path d="M42.434 34.527C29.496 21.94 38.408 0 56.459 0c18.052 0 26.964 21.94 14.026 34.527L56.459 48.174 42.434 34.527zm.082 43.946C29.578 91.06 38.49 113 56.541 113c18.052 0 26.964-21.94 14.026-34.527L56.54 64.826 42.516 78.473zm-7.989-7.908C21.94 83.503 0 74.591 0 56.54c0-18.052 21.94-26.964 34.527-14.026L48.174 56.54 34.527 70.565zm43.946-.081C91.06 83.422 113 74.51 113 56.459c0-18.052-21.94-26.964-34.527-14.026L64.826 56.46l13.647 14.025z" fill="#EEF8D3"/></svg>