<svg width="34" height="34" fill="none" xmlns="http://www.w3.org/2000/svg"><path d="M22.38 25.579L12.155 8.178c-.429-.731-1.028-.947-1.714-.881-.561.065-1.304.356-1.99.75-2.379 1.358-3.283 3.448-5.596 4.76-1.01.571-1.885.787-2.304 1.021-.495.281-.714.75-.419 1.265l3.827 6.531c.428.731 1.038.937 1.713.872.562-.066 1.314-.356 1.99-.76 2.39-1.358 3.284-3.438 5.597-4.76.771-.43 1.475-.665 1.923-.834l5.95 10.149c.2.346.627.459.98.262a.73.73 0 00.266-.974zm-4.722-10.27l.828 1.405.333-.572c.447.17 1.142.403 1.923.835 2.303 1.32 3.208 3.401 5.587 4.76.686.403 1.428.693 1.99.759.685.065 1.285-.14 1.713-.872l3.837-6.531c.295-.515.066-.984-.42-1.265-.418-.234-1.303-.45-2.312-1.021-2.314-1.312-3.208-3.402-5.588-4.76-.685-.394-1.437-.685-1.99-.75-.685-.066-1.285.15-1.713.88l-4.188 7.132zm-1.314 5.06l-.838-1.415-3.883 6.625c-.2.337-.067.777.266.974.353.197.78.084.971-.262l3.484-5.922z" fill="#262626"/></svg>