<svg width="34" height="34" fill="none" xmlns="http://www.w3.org/2000/svg"><path d="M16.477 24.077h1.177c6.544 0 10.954-4.418 10.954-11.275v-2.661c0-3.12-4.659-5.245-11.543-5.245-6.883 0-11.542 2.124-11.542 5.245v2.661c0 6.62 4.397 11.275 10.954 11.275zm.588-10.737c-5.47 0-9.5-1.39-9.5-3.2 0-1.795 4.03-3.198 9.5-3.198 5.484 0 9.515 1.403 9.515 3.199 0 1.809-4.031 3.199-9.515 3.199zm10.13 4.942h1.034c2.918 0 4.672-1.534 4.672-4.077 0-2.53-1.767-4.077-4.672-4.077h-.838v2.032h.838c1.662 0 2.63.76 2.63 2.045 0 1.272-.968 2.045-2.63 2.045h-1.034v2.032zM17 30.357c9.946 0 17-2.832 17-6.948 0-1.6-1.086-3.003-2.997-4.13-.785.328-1.649.511-2.63.537-2.081 3.632-5.89 5.795-10.719 5.795h-1.177c-5.38 0-9.58-2.858-11.452-7.329C1.845 19.515 0 21.298 0 23.41c0 4.116 7.067 6.948 17 6.948z" fill="#1C1C1E"/></svg>