<svg width="34" height="34" fill="none" xmlns="http://www.w3.org/2000/svg"><path d="M0 13.908c0 1.352.825 2.177 2.177 2.177h28.958c1.352 0 2.191-.825 2.191-2.177v-.697c0-1.338-.84-2.192-2.191-2.192H2.177C.825 11.02 0 11.873 0 13.211v.697zM9.05 31.71h15.226c3.287 0 4.312-1.921 4.724-3.985l1.979-9.69H2.361l1.964 9.69c.413 2.064 1.437 3.985 4.724 3.985zm.925-2.448c-.54.085-.939-.2-1.024-.683l-1.224-7.158c-.086-.483.228-.868.768-.967.541-.071.954.199 1.039.683l1.21 7.157c.07.484-.214.869-.769.968zm4.511-.014c-.54.028-.94-.299-.968-.797l-.47-7.072c-.028-.498.328-.854.855-.897.554-.043.925.3.967.797l.47 7.072c.028.498-.327.868-.854.897zm4.383 0c-.54-.029-.897-.399-.868-.897l.47-7.072c.042-.498.412-.84.967-.797.527.043.882.399.854.897l-.47 7.072c-.028.498-.427.825-.953.797zm4.482.014c-.555-.1-.84-.484-.768-.968l1.21-7.157c.085-.484.497-.754 1.038-.683.54.1.854.512.769.996l-1.224 7.129c-.086.484-.498.768-1.025.683zM4.582 11.632h2.846l5.009-8.695c.384-.683.071-1.28-.455-1.566-.513-.27-1.196-.227-1.58.413l-5.82 9.847zm21.316 0h2.846l-5.82-9.848c-.37-.626-1.053-.669-1.58-.413-.512.285-.839.883-.454 1.566l5.008 8.694z" fill="#262626"/></svg>