<svg width="34" height="36" fill="none" xmlns="http://www.w3.org/2000/svg"><path d="M10.1 33.661h13.801c2.69 0 4.028-1.393 4.028-4.205V9.142c0-2.812-1.338-4.205-3.898-4.205h-.299v1.754c0 1.688-1.104 2.88-2.716 2.88h-8.03c-1.612 0-2.716-1.192-2.716-2.88V4.937h-.3c-2.56 0-3.898 1.393-3.898 4.205v20.314c0 2.812 1.339 4.205 4.029 4.205zm2.886-25.644h8.03c.754 0 1.209-.495 1.209-1.326V5.285c0-.83-.455-1.325-1.209-1.325h-1.195C19.73 2.446 18.508 1.214 17 1.214c-1.508 0-2.729 1.232-2.82 2.746h-1.195c-.754 0-1.209.495-1.209 1.325v1.406c0 .83.455 1.326 1.209 1.326zM17 5.232c-.624 0-1.13-.536-1.13-1.165 0-.657.506-1.179 1.13-1.179.624 0 1.13.522 1.13 1.179 0 .629-.506 1.165-1.13 1.165z" fill="#262626"/></svg>