<svg width="34" height="36" fill="none" xmlns="http://www.w3.org/2000/svg"><path d="M12.162 33c1.196 0 1.935-.67 1.921-1.836l-.284-15.98c0-.499.213-.869.654-1.068 1.879-.825 2.69-1.693 2.59-4.184l-.398-8.737c-.029-.626-.399-.982-.982-.982-.555 0-.897.37-.897 1.01l.1 8.496c0 .498-.313.811-.783.811-.483 0-.825-.299-.825-.768L13.116.968C13.1.356 12.746 0 12.162 0c-.583 0-.925.356-.939.968l-.142 8.794c0 .47-.342.768-.825.768-.47 0-.797-.313-.797-.811l.1-8.495c0-.64-.328-1.01-.897-1.01-.584 0-.954.355-.982.981l-.384 8.737c-.114 2.49.697 3.359 2.575 4.184.441.2.655.57.655 1.067l-.27 15.98C10.24 32.33 10.965 33 12.162 33zM23.29 20.59l-.299 10.502C22.95 32.33 23.703 33 24.884 33c1.21 0 1.95-.612 1.95-1.75V1.067C26.833.342 26.334 0 25.822 0c-.54 0-.896.285-1.352.953-2.29 3.216-3.8 9.236-3.8 14.928v.697c0 .982.357 1.707 1.068 2.177l.84.57c.512.355.74.753.711 1.266z" fill="#262626"/></svg>