<svg width="34" height="34" fill="none" xmlns="http://www.w3.org/2000/svg"><path d="M3.336 19.471H4.63v-2.86H3.336v2.86zm6.73 13.405c1.78 0 2.605-1.637 1.637-3.373l-5.322-9.406c-.455-.783-1.138-1.138-1.992-1.138-1.338 0-2.063.996-1.95 2.32.285 1.693 1.423 4.396 2.804 6.616 2.177 3.686 3.443 4.98 4.824 4.98zM30.815 19.47v-2.86H29.52v2.86h1.295zm-6.73 13.405c1.38 0 2.646-1.295 4.823-4.98 1.366-2.22 2.519-4.924 2.803-6.618.114-1.323-.611-2.32-1.95-2.32-.853 0-1.536.357-1.991 1.14l-5.322 9.405c-.982 1.736-.143 3.373 1.636 3.373zM2.851 16.369c0 .669.427 1.082 1.096 1.082s1.067-.413 1.067-1.082c.071-7.67 4.639-12.537 12.053-12.537 7.428 0 11.981 4.867 12.052 12.537 0 .669.413 1.082 1.082 1.082s1.081-.413 1.081-1.082c0-8.723-5.364-14.714-14.215-14.714-8.851 0-14.216 5.991-14.216 14.714z" fill="#262626"/><path d="M14.321 30.058c.91-.526 1.153-1.707.57-2.718l-4.796-8.466c-.583-1.01-1.722-1.38-2.618-.854-.555.299-.683.825-.399 1.323l5.891 10.36c.3.512.812.654 1.352.355zm5.507 0c.541.3 1.053.157 1.338-.355l5.891-10.36c.299-.498.17-1.024-.384-1.323-.91-.527-2.035-.157-2.633.854l-4.795 8.466c-.584 1.01-.328 2.192.583 2.718zM8.758 8.785c2.333-1.267 5.065-1.893 8.31-1.893 3.258 0 5.99.626 8.31 1.893-1.864-2.391-4.525-3.586-8.31-3.586-3.771 0-6.432 1.195-8.31 3.586z" fill="#262626"/></svg>