<svg width="34" height="35" fill="none" xmlns="http://www.w3.org/2000/svg"><path d="M6.072 21.416c0 1.21.811 2.006 2.092 2.006h7.698v6.646c0 2.177.911 3.984 1.267 3.984.341 0 1.252-1.807 1.252-3.984v-6.646h7.699c1.28 0 2.091-.796 2.091-2.006 0-3.002-2.404-6.176-6.403-7.627l-.47-6.532c2.078-1.18 3.785-2.518 4.525-3.472.37-.484.555-.967.555-1.394 0-.868-.668-1.509-1.665-1.509H9.544c-1.01 0-1.665.64-1.665 1.509 0 .427.171.91.541 1.394.74.954 2.448 2.291 4.525 3.472l-.47 6.532c-3.998 1.451-6.403 4.625-6.403 7.627z" fill="#1C1C1E"/></svg>