<svg width="34" height="34" fill="none" xmlns="http://www.w3.org/2000/svg"><path d="M31.668 11.665l-11.52-5.258c-1.2-.54-2.177-.798-3.153-.774-.965-.024-1.942.235-3.154.774L2.333 11.665c-.753.34-1.118.94-1.118 1.538 0 .598.365 1.185 1.118 1.537l4.848 2.207 7.449-3.486a.39.39 0 01-.095-.258c0-.74 1.248-1.303 2.507-1.303 1.27 0 2.494.563 2.494 1.303 0 .763-1.223 1.338-2.494 1.338a4.29 4.29 0 01-1.118-.153L8.816 17.71l5.025 2.3c1.212.552 2.189.787 3.154.775.976.012 1.953-.223 3.153-.774l11.52-5.27c.754-.352 1.118-.939 1.118-1.537 0-.599-.364-1.197-1.118-1.538zM8.77 19.447v7.135c1.977 1.197 4.801 1.925 8.226 1.925 6.942 0 11.414-2.97 11.414-6.479v-4.037l-7.59 3.462c-1.377.634-2.624.951-3.824.94-1.189.011-2.448-.306-3.825-.94l-4.4-2.006zM5.592 17.99v4.037c0 1.021.589 2.289 1.648 3.369v-6.643l-1.648-.763zM7.24 29.305h1.53v-2.723a7.55 7.55 0 01-1.53-1.185v3.908zm-.93.082v3.087c0 .927.6 1.525 1.53 1.525h.318c.93 0 1.53-.598 1.53-1.525v-3.087c0-.927-.6-1.526-1.53-1.526H7.84c-.93 0-1.53.599-1.53 1.526z" fill="#1C1C1E"/></svg>