<svg width="34" height="36" fill="none" xmlns="http://www.w3.org/2000/svg"><path d="M12.942 33.825h8.118c4.623 0 6.909-2.374 6.869-7.121-.053-5.422-.08-9.36-.213-12.314-.385-8.685-2.79-11.234-10.709-11.234-7.918 0-10.336 2.549-10.722 11.234-.133 2.954-.16 6.892-.212 12.314-.04 4.747 2.245 7.121 6.869 7.121zm-.385-5.354c-1.143 0-1.874-.756-1.874-1.888v-6.96c0-1.146.73-1.901 1.874-1.901h8.902c1.129 0 1.86.755 1.86 1.901v6.96c0 1.133-.731 1.888-1.86 1.888h-8.902zm-1.874-5.557H23.32V21.31H10.683v1.605zM17.008 0c-2.551 0-4.345 1.753-4.345 4.14h1.873c0-1.308 1.01-2.238 2.472-2.238 1.448 0 2.47.93 2.47 2.238h1.874c0-2.387-1.807-4.14-4.345-4.14z" fill="#1C1C1E"/></svg>